<?xml version="1.0" standalone="no"?>
<!DOCTYPE svg PUBLIC "-//W3C//DTD SVG 20010904//EN"
 "http://www.w3.org/TR/2001/REC-SVG-20010904/DTD/svg10.dtd">
<svg version="1.0" xmlns="http://www.w3.org/2000/svg"
 width="300.000000pt" height="300.000000pt" viewBox="0 0 300.000000 300.000000"
 preserveAspectRatio="xMidYMid meet">
<metadata>
Created by potrace 1.10, written by Peter Selinger 2001-2011
</metadata>
<g transform="translate(0.000000,300.000000) scale(0.100000,-0.100000)"
fill="#000000" stroke="none">
<path d="M372 1652 l-183 -107 6 -73 c7 -71 6 -73 -24 -108 -17 -19 -31 -40
-31 -46 0 -7 41 -9 138 -4 473 21 1239 29 1760 17 301 -6 607 -14 680 -17 112
-6 132 -4 132 8 0 8 -11 25 -24 37 -22 21 -24 28 -20 104 l4 82 -187 108 -187
108 -85 -40 c-102 -47 -248 -91 -386 -117 -86 -16 -150 -19 -460 -19 -305 0
-376 3 -464 18 -137 25 -281 68 -387 117 -48 22 -90 40 -93 39 -3 0 -88 -49
-189 -107z m233 71 l35 -17 0 -78 c0 -72 -2 -79 -25 -94 -14 -9 -25 -21 -25
-27 0 -6 11 0 25 13 l25 23 0 -35 c0 -34 -1 -35 -34 -34 l-35 1 -3 133 c-2 72
-2 132 -1 132 1 0 18 -8 38 -17z m1827 -116 l-3 -133 -27 2 c-15 1 -30 2 -34
3 -5 0 -8 15 -8 33 0 29 1 30 18 15 10 -10 23 -17 28 -17 5 0 -4 10 -20 23
l-28 23 31 62 c39 77 40 96 1 22 l-29 -55 -1 61 c0 58 1 61 33 77 17 8 34 16
37 16 3 1 4 -59 2 -132z m-1882 114 c0 -5 -11 -29 -25 -52 -14 -24 -25 -48
-24 -54 0 -5 11 10 24 35 l24 45 1 -107 0 -108 -40 0 c-36 0 -40 3 -40 24 0
14 4 36 10 50 5 15 6 26 0 26 -5 0 -9 25 -9 54 0 51 3 57 32 75 35 23 47 26
47 12z m1946 -12 l33 -20 -1 -105 -1 -104 -41 0 -41 1 35 30 35 31 -32 -22
-33 -21 0 115 c0 64 3 116 6 116 4 0 22 -9 40 -21z m-1772 -41 c5 -4 9 -34 7
-65 -2 -49 -7 -62 -29 -81 -25 -22 -25 -22 -2 -8 33 21 35 21 37 -14 2 -29 0
-30 -37 -30 l-40 0 0 115 0 115 28 -12 c15 -7 31 -15 36 -20z m1616 -83 l0
-115 -35 0 c-32 0 -35 2 -35 31 0 31 4 31 41 5 8 -6 3 0 -11 14 -23 21 -27 34
-29 87 -2 62 -2 63 31 77 18 8 34 15 36 15 1 1 2 -51 2 -114z m-1880 -5 l0
-100 -40 0 c-36 0 -40 2 -40 26 0 20 4 25 16 20 14 -5 15 -4 4 8 -10 12 -8 21
8 43 24 35 44 73 38 73 -2 0 -16 -20 -30 -45 -15 -25 -29 -45 -31 -45 -3 0 -5
18 -5 39 0 33 5 42 33 59 17 11 35 21 40 21 4 1 7 -44 7 -99z m2124 79 c32
-18 36 -26 36 -60 0 -21 -2 -39 -4 -39 -2 0 -16 20 -30 45 -15 25 -29 45 -32
45 -6 0 -3 -4 34 -64 l25 -40 -29 -24 c-29 -25 -29 -25 -2 -8 36 21 38 21 38
-9 0 -23 -4 -25 -40 -25 l-41 0 2 100 c1 55 3 100 5 100 1 0 19 -9 38 -21z
m-1786 -10 l32 -11 -1 -84 -2 -84 -38 0 -39 0 0 95 c0 52 4 95 9 95 4 0 22 -5
39 -11z m1452 -5 c0 -16 -60 -94 -72 -94 -5 0 -8 20 -8 44 0 39 3 45 28 54 39
15 52 14 52 -4z m-1884 -86 l-1 -73 -37 -3 c-32 -3 -38 0 -38 17 0 11 12 34
27 53 l27 33 -27 -24 -27 -24 0 24 c0 17 11 30 38 46 20 12 38 22 38 23 1 0 1
-33 0 -72z m528 62 c21 -8 26 -16 26 -45 0 -42 -7 -40 -50 15 -33 42 -27 50
24 30z m1266 -70 l0 -80 -39 0 -39 0 0 71 c-1 63 1 71 21 79 53 21 57 16 57
-70z m550 11 c-1 -26 -1 -26 -30 9 -39 45 -39 34 0 -15 17 -21 30 -46 30 -57
0 -16 -6 -19 -37 -16 l-38 3 -1 73 -2 72 39 -22 c30 -17 39 -28 39 -47z
m-1826 1 c20 -24 36 -55 36 -68 0 -21 -4 -24 -40 -24 l-40 0 0 72 c0 39 2 69
4 67 2 -2 20 -24 40 -47z m124 33 c2 -2 2 -19 0 -40 l-3 -36 -39 46 -38 46 38
-7 c22 -4 40 -8 42 -9z m1058 -57 l-1 -73 -37 -3 c-32 -3 -38 0 -38 16 0 11
14 36 30 57 39 49 39 60 0 15 l-29 -35 -1 42 c0 44 -2 43 66 52 8 1 11 -22 10
-71z m184 2 l0 -70 -40 0 c-35 0 -40 3 -40 23 0 20 64 117 76 117 2 0 4 -31 4
-70z m-1276 3 c49 -62 48 -85 -1 -81 l-38 3 -3 63 c-2 34 -1 62 1 62 2 0 21
-21 41 -47z m104 41 c17 -5 22 -14 22 -37 l0 -30 -27 24 -28 24 25 -28 c13
-15 26 -39 27 -52 3 -21 -1 -25 -21 -25 -49 0 -56 8 -56 71 0 63 4 67 58 53z
m902 -53 c0 -63 -7 -71 -56 -71 -20 0 -24 4 -21 25 1 13 14 37 27 52 l25 28
-27 -24 -28 -24 0 31 c0 31 10 38 58 41 20 1 22 -3 22 -58z m-804 39 c8 0 14
-10 14 -27 0 -25 0 -26 -20 -8 -11 10 -22 16 -25 13 -3 -3 6 -13 20 -22 16
-10 25 -26 25 -42 0 -23 -3 -25 -37 -22 -38 3 -38 3 -41 52 -3 50 9 71 36 61
8 -3 20 -5 28 -5z m712 -54 l-3 -51 -37 -3 c-34 -3 -38 -1 -38 20 0 12 12 33
28 46 l27 24 -27 -16 c-27 -16 -28 -16 -28 8 0 19 6 25 28 28 47 6 53 0 50
-56z m902 -1 c0 -19 -6 -24 -35 -27 l-35 -4 0 48 0 47 35 -20 c24 -14 35 -28
35 -44z m-2510 15 c0 -39 -1 -40 -35 -40 -31 0 -35 3 -35 25 0 16 9 29 28 39
39 22 42 20 42 -24z m1000 -20 l0 -60 -27 6 c-52 11 -53 12 -53 58 0 47 7 54
53 55 27 1 27 0 27 -59z m210 24 l0 -35 -27 19 c-39 26 -53 34 -53 28 0 -2 16
-14 35 -26 19 -12 32 -27 29 -32 -4 -7 -2 -8 4 -4 8 5 12 0 12 -13 0 -18 -6
-21 -50 -21 l-50 0 0 54 c0 54 0 55 33 59 69 8 67 9 67 -29z m93 27 c26 -1 27
-3 27 -56 l0 -55 -50 0 c-43 0 -50 3 -50 20 0 12 16 30 40 46 22 15 40 29 40
31 0 5 -15 -3 -52 -29 l-28 -19 0 35 c0 32 3 35 23 32 12 -3 34 -5 50 -5z
m201 3 c20 -8 23 -93 4 -98 -56 -18 -68 -16 -68 6 0 12 15 38 33 58 l32 35
-32 -29 -33 -30 0 32 c0 27 4 32 24 32 13 0 31 -3 40 -6z m-414 -31 c0 -26 0
-26 -22 -7 l-23 19 23 -26 c31 -36 30 -69 -4 -69 -14 0 -22 4 -19 10 3 6 -1 7
-9 4 -13 -5 -16 3 -16 45 l0 51 35 0 c31 0 35 -3 35 -27z m335 -24 c0 -43 -2
-49 -17 -45 -10 2 -16 0 -12 -5 3 -5 -6 -9 -20 -9 -35 0 -35 34 2 74 l27 31
-27 -24 -28 -24 0 26 c0 24 4 27 38 27 l37 0 0 -51z m-779 -59 c564 -19 579
-19 1145 0 316 11 607 20 647 20 l72 0 0 -38 0 -39 -217 -6 c-283 -9 -1878 -9
-2151 0 l-212 6 0 39 0 38 73 0 c39 0 329 -9 643 -20z"/>
<path d="M630 1140 l0 -130 35 0 c35 0 74 27 76 53 1 24 10 72 14 75 2 2 9 1
15 -3 8 -5 10 -21 6 -46 -11 -67 31 -90 102 -56 27 13 29 27 2 20 -16 -4 -24
4 -39 40 -17 39 -25 47 -55 53 -21 3 -36 12 -36 20 0 21 25 28 50 14 41 -22
66 0 77 65 4 28 4 29 -10 11 -13 -18 -15 -18 -38 -3 -56 40 -79 15 -89 -97
-10 -103 -21 -126 -61 -126 -36 0 -52 28 -24 44 48 28 55 43 55 121 l0 75 -40
0 -40 0 0 -130z"/>
<path d="M1190 1142 l0 -132 43 0 42 0 -2 103 c-1 56 -2 105 -3 110 0 4 -9 7
-20 7 -10 0 -28 10 -40 22 l-20 22 0 -132z"/>
<path d="M1353 1248 c-21 -22 -23 -34 -23 -131 l0 -107 41 0 41 0 -4 86 c-4
80 -6 87 -34 109 -22 18 -26 26 -17 36 25 26 103 -21 103 -63 0 -10 -10 -23
-22 -27 -20 -8 -21 -10 -5 -16 12 -5 17 -19 17 -50 0 -61 38 -85 93 -58 31 15
37 34 8 26 -14 -3 -21 3 -29 25 -5 16 -20 39 -33 51 -16 15 -19 21 -8 21 25 0
58 37 52 59 -9 35 -39 53 -100 58 -52 5 -60 3 -80 -19z"/>
<path d="M984 1210 c-33 -13 -54 -50 -54 -95 0 -60 42 -98 109 -99 56 -1 84
18 100 68 29 87 -65 163 -155 126z m59 -42 c54 -72 70 -124 41 -135 -32 -12
-124 116 -110 153 9 24 44 15 69 -18z"/>
<path d="M1643 1210 c-50 -20 -72 -105 -39 -155 18 -28 86 -50 123 -40 43 10
73 49 73 95 0 54 -14 79 -55 96 -38 16 -69 17 -102 4z m54 -37 c33 -39 66
-110 59 -128 -14 -38 -77 10 -111 86 -30 66 5 95 52 42z"/>
<path d="M1860 1206 c0 -67 56 -90 81 -33 19 44 43 42 47 -4 l3 -36 -52 -5
c-39 -4 -58 -11 -71 -28 -10 -12 -18 -26 -18 -31 0 -39 113 -76 135 -45 11 14
14 14 24 2 9 -10 21 -12 48 -6 44 10 67 30 35 30 -23 0 -25 6 -22 77 2 68 -59
110 -124 84 -57 -23 -66 -24 -66 -7 0 9 -4 16 -10 16 -5 0 -10 -6 -10 -14z
m128 -128 c-2 -35 -7 -43 -23 -43 -22 0 -50 48 -41 71 3 8 19 14 36 14 30 0
31 -1 28 -42z"/>
<path d="M2120 1117 l0 -107 40 0 39 0 3 92 c3 80 5 93 21 96 16 3 18 -4 16
-72 -1 -61 2 -80 16 -96 20 -23 37 -25 66 -9 18 9 19 12 5 22 -13 10 -15 25
-9 80 4 46 11 71 21 74 23 9 31 -17 25 -84 -4 -43 -2 -67 7 -78 17 -21 73 -19
101 3 l22 19 -24 -1 c-22 -1 -24 3 -29 62 -6 77 -33 108 -85 97 -16 -3 -40 -6
-52 -5 -13 0 -38 1 -55 2 -18 1 -48 -5 -66 -13 -31 -13 -35 -12 -48 5 -12 18
-14 8 -14 -87z"/>
</g>
</svg>
